<mxfile host="65bd71144e">
    <diagram id="oXImNd3nWVWIjdRGCqbt" name="Pagina-1">
        <mxGraphModel dx="797" dy="3052" grid="1" gridSize="10" guides="1" tooltips="1" connect="1" arrows="1" fold="1" page="1" pageScale="1" pageWidth="1169" pageHeight="827" math="0" shadow="0">
            <root>
                <mxCell id="0"/>
                <mxCell id="1" parent="0"/>
                <mxCell id="74" style="edgeStyle=orthogonalEdgeStyle;rounded=0;html=1;exitX=0.5;exitY=0;exitDx=0;exitDy=0;entryX=0;entryY=0.5;entryDx=0;entryDy=0;startArrow=none;startFill=0;endArrow=classic;endFill=1;fontSize=12;" parent="1" source="75" target="77" edge="1">
                    <mxGeometry relative="1" as="geometry"/>
                </mxCell>
                <mxCell id="75" value="PC" style="rounded=0;whiteSpace=wrap;html=1;direction=south;fontSize=12;" parent="1" vertex="1">
                    <mxGeometry x="210" y="-2220" width="30" height="70" as="geometry"/>
                </mxCell>
                <mxCell id="76" style="edgeStyle=none;rounded=0;html=1;exitX=1;exitY=0.5;exitDx=0;exitDy=0;entryX=0.364;entryY=1;entryDx=0;entryDy=0;sourcePerimeterSpacing=-2;targetPerimeterSpacing=2;entryPerimeter=0;fontSize=12;" parent="1" source="77" target="85" edge="1">
                    <mxGeometry relative="1" as="geometry"/>
                </mxCell>
                <mxCell id="77" value="MI" style="whiteSpace=wrap;html=1;aspect=fixed;fontSize=12;" parent="1" vertex="1">
                    <mxGeometry x="300" y="-2210" width="50" height="50" as="geometry"/>
                </mxCell>
                <mxCell id="78" style="edgeStyle=orthogonalEdgeStyle;html=1;exitX=1;exitY=0.5;exitDx=0;exitDy=0;entryX=0;entryY=0.175;entryDx=0;entryDy=0;entryPerimeter=0;rounded=0;fontSize=12;" parent="1" source="79" target="99" edge="1">
                    <mxGeometry relative="1" as="geometry">
                        <mxPoint x="640" y="-2175" as="targetPoint"/>
                    </mxGeometry>
                </mxCell>
                <mxCell id="79" value="REG" style="whiteSpace=wrap;html=1;aspect=fixed;fontSize=12;" parent="1" vertex="1">
                    <mxGeometry x="530" y="-2210" width="70" height="70" as="geometry"/>
                </mxCell>
                <mxCell id="80" style="edgeStyle=orthogonalEdgeStyle;html=1;exitX=1;exitY=0.5;exitDx=0;exitDy=0;entryX=0;entryY=0.825;entryDx=0;entryDy=0;entryPerimeter=0;rounded=0;fontSize=12;" parent="1" source="81" target="99" edge="1">
                    <mxGeometry relative="1" as="geometry">
                        <mxPoint x="640" y="-2095" as="targetPoint"/>
                    </mxGeometry>
                </mxCell>
                <mxCell id="81" value="EXT" style="shape=manualInput;whiteSpace=wrap;html=1;size=13;verticalAlign=middle;labelPosition=center;verticalLabelPosition=middle;align=center;spacingBottom=-5;spacingTop=9;fontSize=12;" parent="1" vertex="1">
                    <mxGeometry x="530" y="-2115" width="70" height="40" as="geometry"/>
                </mxCell>
                <mxCell id="82" style="edgeStyle=none;rounded=0;html=1;exitX=0.297;exitY=0.004;exitDx=0;exitDy=0;entryX=0;entryY=0.25;entryDx=0;entryDy=0;sourcePerimeterSpacing=-2;targetPerimeterSpacing=2;exitPerimeter=0;fontSize=12;" parent="1" source="85" target="79" edge="1">
                    <mxGeometry relative="1" as="geometry"/>
                </mxCell>
                <mxCell id="83" style="edgeStyle=none;rounded=0;html=1;exitX=0.457;exitY=0.015;exitDx=0;exitDy=0;sourcePerimeterSpacing=-2;targetPerimeterSpacing=2;exitPerimeter=0;entryX=0;entryY=0.5;entryDx=0;entryDy=0;fontSize=12;" parent="1" source="85" target="79" edge="1">
                    <mxGeometry relative="1" as="geometry">
                        <mxPoint x="440" y="-2175" as="targetPoint"/>
                        <Array as="points"/>
                    </mxGeometry>
                </mxCell>
                <mxCell id="84" style="edgeStyle=orthogonalEdgeStyle;rounded=0;html=1;exitX=1;exitY=0.5;exitDx=0;exitDy=0;entryX=0;entryY=0.625;entryDx=0;entryDy=0;entryPerimeter=0;sourcePerimeterSpacing=-2;targetPerimeterSpacing=2;fontSize=12;" parent="1" source="85" target="81" edge="1">
                    <mxGeometry relative="1" as="geometry"/>
                </mxCell>
                <mxCell id="85" value="ISTR" style="rounded=0;whiteSpace=wrap;html=1;direction=south;fontSize=12;" parent="1" vertex="1">
                    <mxGeometry x="410" y="-2225" width="50" height="110" as="geometry"/>
                </mxCell>
                <mxCell id="98" style="edgeStyle=orthogonalEdgeStyle;rounded=0;html=1;exitX=1;exitY=0.5;exitDx=0;exitDy=0;exitPerimeter=0;startArrow=none;startFill=0;endArrow=classic;endFill=1;entryX=0;entryY=0.5;entryDx=0;entryDy=0;fontSize=12;" parent="1" source="99" target="100" edge="1">
                    <mxGeometry relative="1" as="geometry">
                        <mxPoint x="770" y="-2114.8" as="targetPoint"/>
                    </mxGeometry>
                </mxCell>
                <mxCell id="99" value="ALU" style="shape=stencil(rZTdDoIgGIavhtOmMKvTRnXUaRdAislUcEh/dx+CtvzBFbU5t+995eEFPgEI1xmpKIABJyUFaAsg3ByO+q2lm63DILB1NqhJXdFYWfFKJCOnglqnVlLk9MYS1Y5hPKOSqcZFOxBs9DfNg/CJxPlZigtPekZnV6QhjIzOLsW1yX63k7SxHr0KwP0MoGD8DfBaWYv4B2PtwegTXkR/xDLyWEjUQ0Q/h0AeIb44UoS1PuoXozqaDOFUSDrTfSkrCtvKM7M6WnQ6Tuc5qWaYIxbCseBc/3JM8HoSq31NJowr5xYuwtXsOXwGWUMPSDiAOBBmC8YrNbK9rYzwBA==);whiteSpace=wrap;html=1;fontSize=12;" parent="1" vertex="1">
                    <mxGeometry x="650" y="-2180" width="70" height="80" as="geometry"/>
                </mxCell>
                <mxCell id="101" style="edgeStyle=orthogonalEdgeStyle;rounded=0;html=1;exitX=1;exitY=0.5;exitDx=0;exitDy=0;entryX=0.5;entryY=0;entryDx=0;entryDy=0;fontSize=12;" parent="1" source="100" target="79" edge="1">
                    <mxGeometry relative="1" as="geometry">
                        <Array as="points">
                            <mxPoint x="830" y="-2140"/>
                            <mxPoint x="830" y="-2230"/>
                            <mxPoint x="565" y="-2230"/>
                        </Array>
                    </mxGeometry>
                </mxCell>
                <mxCell id="100" value="MD" style="whiteSpace=wrap;html=1;aspect=fixed;fontSize=12;" parent="1" vertex="1">
                    <mxGeometry x="760" y="-2168.5" width="57" height="57" as="geometry"/>
                </mxCell>
            </root>
        </mxGraphModel>
    </diagram>
</mxfile>